# xmcd
#
# Track frame offsets:
#	150
#	11905
#	24739
#	40673
#	52492
#	63663
#	71697
#	84347
#	94920
#	108218
#	118648
#	130258
#	143835
#	155907
#	167891
#	177972
#	191190
#	203954
#	216772
#	226961
#	241288
#	255537
#	266414
#	278186
#	289349
#	302309
#	313921
#	326056
#	338175
#
# Disc length: 4668 seconds
#
# Revision: 1
# Processed by: cddbd v1.5.2PL0 Copyright (c) Steve Scherf et al.
# Submitted via: EasyCDDAExtractor 10.0.2.1
#
DISCID=c0123a1d
DTITLE=Jimmy Martin and the Sunny Mountain Boys - 1954 - 1974 - CD3
DYEAR=1994
DGENRE=Bluegrass
TTITLE0=Prayer Bell Of Heaven
TTITLE1=Give Me Your Hand
TTITLE2=Stormy Waters
TTITLE3=What Would You Give In Exchange
TTITLE4=Shut-In's Prayer
TTITLE5=A Beautiful Life
TTITLE6=Little White Church
TTITLE7=The Old Man's Drunk Again
TTITLE8=Moonshine Hollow
TTITLE9=Hey Lonesome
TTITLE10=Tennessee
TTITLE11=Widow Maker
TTITLE12=I'm Thinking Tonight Of My Blue Eyes
TTITLE13=Red River Valley
TTITLE14=John Henry
TTITLE15=Truck Driving Man
TTITLE16=There's More Pretty Girls Than One
TTITLE17=Six Days On The Road
TTITLE18=Truck Driver's Queen
TTITLE19=I'd Rather Have America
TTITLE20=Little Robin
TTITLE21=There's Better Times A'Coming
TTITLE22=20/20 Vision
TTITLE23=Guitar Picking President
TTITLE24=It Takes One To Know One
TTITLE25=Sunny Side Of The Mountain
TTITLE26=Snow White Grave
TTITLE27=Poor Ellen Smith
TTITLE28=Shenandoah Waltz
EXTD=
EXTT0=
EXTT1=
EXTT2=
EXTT3=
EXTT4=
EXTT5=
EXTT6=
EXTT7=
EXTT8=
EXTT9=
EXTT10=
EXTT11=
EXTT12=
EXTT13=
EXTT14=
EXTT15=
EXTT16=
EXTT17=
EXTT18=
EXTT19=
EXTT20=
EXTT21=
EXTT22=
EXTT23=
EXTT24=
EXTT25=
EXTT26=
EXTT27=
EXTT28=
PLAYORDER=
